<?xml version="1.0" encoding="UTF-8" standalone="no"?>
<!-- Created with Inkscape (http://www.inkscape.org/) -->

<svg
   xmlns:dc="http://purl.org/dc/elements/1.1/"
   xmlns:cc="http://creativecommons.org/ns#"
   xmlns:rdf="http://www.w3.org/1999/02/22-rdf-syntax-ns#"
   xmlns:svg="http://www.w3.org/2000/svg"
   xmlns="http://www.w3.org/2000/svg"
   xmlns:sodipodi="http://sodipodi.sourceforge.net/DTD/sodipodi-0.dtd"
   xmlns:inkscape="http://www.inkscape.org/namespaces/inkscape"
   width="91.613182mm"
   height="106.45137mm"
   viewBox="0 0 324.61364 377.18989"
   id="svg2"
   version="1.1"
   inkscape:version="0.91 r13725"
   sodipodi:docname="base_top.svg">
  <defs
     id="defs4" />
  <sodipodi:namedview
     id="base"
     pagecolor="#ffffff"
     bordercolor="#666666"
     borderopacity="1.0"
     inkscape:pageopacity="0.0"
     inkscape:pageshadow="2"
     inkscape:zoom="2.8"
     inkscape:cx="183.57602"
     inkscape:cy="102.09748"
     inkscape:document-units="px"
     inkscape:current-layer="layer1"
     showgrid="false"
     fit-margin-top="0"
     fit-margin-left="0"
     fit-margin-right="0"
     fit-margin-bottom="0"
     inkscape:window-width="2560"
     inkscape:window-height="1416"
     inkscape:window-x="1680"
     inkscape:window-y="24"
     inkscape:window-maximized="1" />
  <metadata
     id="metadata7">
    <rdf:RDF>
      <cc:Work
         rdf:about="">
        <dc:format>image/svg+xml</dc:format>
        <dc:type
           rdf:resource="http://purl.org/dc/dcmitype/StillImage" />
        <dc:title></dc:title>
      </cc:Work>
    </rdf:RDF>
  </metadata>
  <g
     inkscape:label="Layer 1"
     inkscape:groupmode="layer"
     id="layer1"
     transform="translate(-104.85934,-97.205859)">
    <path
       style="opacity:0.98000004;fill:none;fill-opacity:1;stroke:#000000;stroke-width:1;stroke-miterlimit:4;stroke-dasharray:none;stroke-opacity:1"
       d="m 267.16713,98.00586 c -65.93875,0.09208 -126.99838,34.76005 -160.86719,91.33594 l 56.27149,0 c 0.0314,0 0.0566,0.0105 0.0566,0.0254 l 0,192.86523 c 0,0.0148 -0.0253,0.0274 -0.0566,0.0274 l -56.30078,0 c 33.87418,56.58483 94.94729,91.25413 160.89648,91.33593 65.9485,-0.0825 127.02071,-34.7517 160.89453,-91.33593 l -56.30078,0 c -0.0314,0 -0.0566,-0.0125 -0.0566,-0.0274 l 0,-192.86523 c 0,-0.0148 0.0253,-0.0254 0.0566,-0.0254 l 56.27149,0 C 394.16392,132.76651 333.10518,98.098626 267.16713,98.00586 Z"
       id="path4136"
       inkscape:connector-curvature="0"
       sodipodi:nodetypes="ccsssscccsssscc" />
  </g>
</svg>
